<?xml version="1.0" encoding="UTF-8" standalone="no"?>
<!-- Created with Inkscape (http://www.inkscape.org/) -->

<svg
   version="1.1"
   id="svg9"
   xml:space="preserve"
   width="4000"
   height="4000"
   viewBox="0 0 4000 4000"
   sodipodi:docname="2021.11.17_ PIPELINE EDITOR LOGO 3 - white circle.svg"
   inkscape:version="1.1 (c68e22c387, 2021-05-23)"
   xmlns:inkscape="http://www.inkscape.org/namespaces/inkscape"
   xmlns:sodipodi="http://sodipodi.sourceforge.net/DTD/sodipodi-0.dtd"
   xmlns="http://www.w3.org/2000/svg"
   xmlns:svg="http://www.w3.org/2000/svg"><defs
     id="defs13"><clipPath
       clipPathUnits="userSpaceOnUse"
       id="clipPath23"><path
         d="M 0,3000 H 3000 V 0 H 0 Z"
         id="path21" /></clipPath><clipPath
       clipPathUnits="userSpaceOnUse"
       id="clipPath31"><path
         d="M -13.1951,3014.2 H 3015.56 V -14.561 H -13.1951 Z"
         id="path29" /></clipPath><clipPath
       clipPathUnits="userSpaceOnUse"
       id="clipPath49"><path
         d="M 0,3000 H 3000 V 0 H 0 Z"
         id="path47" /></clipPath><clipPath
       clipPathUnits="userSpaceOnUse"
       id="clipPath69"><path
         d="M 0,3000 H 3000 V 0 H 0 Z"
         id="path67" /></clipPath></defs><sodipodi:namedview
     id="namedview11"
     pagecolor="#ffffff"
     bordercolor="#666666"
     borderopacity="1.0"
     inkscape:pageshadow="2"
     inkscape:pageopacity="0.0"
     inkscape:pagecheckerboard="true"
     showgrid="false"
     inkscape:zoom="0.3231478"
     inkscape:cx="1423.4972"
     inkscape:cy="2364.2432"
     inkscape:window-width="3840"
     inkscape:window-height="2066"
     inkscape:window-x="-11"
     inkscape:window-y="-11"
     inkscape:window-maximized="1"
     inkscape:current-layer="g15" /><g
     id="g15"
     inkscape:groupmode="layer"
     inkscape:label="2021.11.17_ PIPELINE EDITOR LOGO"
     transform="matrix(1.3333333,0,0,-1.3333333,0,4000)"><circle
       style="fill:#ffffff;stroke-width:1.18142"
       id="path999"
       cx="1500"
       cy="-1500.0001"
       transform="scale(1,-1)"
       r="1500" /><g
       id="g43"
       transform="matrix(1.191011,0,0,1.191011,-293.9967,-193.78599)"><g
         id="g45"
         clip-path="url(#clipPath49)"><g
           id="g51"
           transform="translate(1342.9025,2063.4878)"><path
             d="M 0,0 C 0,-204.878 -411.268,-109.756 -411.268,-464.337"
             style="fill:none;stroke:#333132;stroke-width:55;stroke-linecap:butt;stroke-linejoin:miter;stroke-miterlimit:10;stroke-dasharray:none;stroke-opacity:1"
             id="path53" /></g><g
           id="g55"
           transform="translate(1342.9025,780.1022)"><path
             d="M 0,0 C 0,204.878 -411.268,109.756 -411.268,464.337"
             style="fill:none;stroke:#333132;stroke-width:55;stroke-linecap:butt;stroke-linejoin:miter;stroke-miterlimit:10;stroke-dasharray:none;stroke-opacity:1"
             id="path57" /></g><g
           id="g59"
           transform="translate(1669.6586,2064.1807)"><path
             d="M 0,0 C 0,-204.878 411.268,-109.756 411.268,-464.337 V -819.049 C 411.268,-1173.63 0,-1078.508 0,-1283.386"
             style="fill:none;stroke:#333132;stroke-width:55;stroke-linecap:butt;stroke-linejoin:miter;stroke-miterlimit:10;stroke-dasharray:none;stroke-opacity:1"
             id="path61" /></g></g></g><g
       id="g63"
       transform="matrix(1.191011,0,0,1.191011,-293.99653,-188.7367)"><g
         id="g65"
         clip-path="url(#clipPath69)"><g
           id="g71"
           transform="translate(1972.3658,2063.4878)"><path
             d="m 0,0 h -941.854 c -6.6,0 -12,5.4 -12,12 v 332.098 c 0,6.6 5.4,12 12,12 H 0 c 6.6,0 12,-5.4 12,-12 V 12 C 12,5.4 6.6,0 0,0"
             style="fill:#ffffff;fill-opacity:1;fill-rule:nonzero;stroke:none"
             id="path73" /></g><g
           id="g75"
           transform="translate(1972.3658,2063.4878)"><path
             d="m 0,0 h -941.854 c -6.6,0 -12,5.4 -12,12 v 332.098 c 0,6.6 5.4,12 12,12 H 0 c 6.6,0 12,-5.4 12,-12 V 12 C 12,5.4 6.6,0 0,0 Z"
             style="fill:none;stroke:#333132;stroke-width:50;stroke-linecap:butt;stroke-linejoin:miter;stroke-miterlimit:10;stroke-dasharray:none;stroke-opacity:1"
             id="path77" /></g><g
           id="g79"
           transform="translate(1552.6586,2419.5854)"><path
             d="m 0,0 c 0,-28.288 -22.932,-51.219 -51.22,-51.219 -28.287,0 -51.219,22.931 -51.219,51.219 0,28.288 22.932,51.219 51.219,51.219 C -22.932,51.219 0,28.288 0,0"
             style="fill:#333132;fill-opacity:1;fill-rule:nonzero;stroke:none"
             id="path81" /></g><g
           id="g83"
           transform="translate(1840.4634,2419.5854)"><path
             d="m 0,0 c 0,-28.288 -22.932,-51.219 -51.219,-51.219 -28.288,0 -51.22,22.931 -51.22,51.219 0,28.288 22.932,51.219 51.22,51.219 C -22.932,51.219 0,28.288 0,0"
             style="fill:#333132;fill-opacity:1;fill-rule:nonzero;stroke:none"
             id="path85" /></g><g
           id="g87"
           transform="translate(1263.7561,2419.5854)"><path
             d="m 0,0 c 0,-28.288 -22.932,-51.219 -51.219,-51.219 -28.288,0 -51.22,22.931 -51.22,51.219 0,28.288 22.932,51.219 51.22,51.219 C -22.932,51.219 0,28.288 0,0"
             style="fill:#333132;fill-opacity:1;fill-rule:nonzero;stroke:none"
             id="path89" /></g><g
           id="g91"
           transform="translate(2551.8538,1473.7073)"><path
             d="m 0,0 h -941.854 c -6.6,0 -12,5.4 -12,12 v 332.098 c 0,6.6 5.4,12 12,12 H 0 c 6.6,0 12,-5.4 12,-12 V 12 C 12,5.4 6.6,0 0,0"
             style="fill:#ffffff;fill-opacity:1;fill-rule:nonzero;stroke:none"
             id="path93" /></g><g
           id="g95"
           transform="translate(2551.8538,1473.7073)"><path
             d="m 0,0 h -941.854 c -6.6,0 -12,5.4 -12,12 v 332.098 c 0,6.6 5.4,12 12,12 H 0 c 6.6,0 12,-5.4 12,-12 V 12 C 12,5.4 6.6,0 0,0 Z"
             style="fill:none;stroke:#333132;stroke-width:50;stroke-linecap:butt;stroke-linejoin:miter;stroke-miterlimit:10;stroke-dasharray:none;stroke-opacity:1"
             id="path97" /></g><g
           id="g99"
           transform="translate(2419.9512,1829.8049)"><path
             d="m 0,0 c 0,-28.288 -22.932,-51.22 -51.219,-51.22 -28.288,0 -51.22,22.932 -51.22,51.22 0,28.288 22.932,51.219 51.22,51.219 C -22.932,51.219 0,28.288 0,0"
             style="fill:#333132;fill-opacity:1;fill-rule:nonzero;stroke:none"
             id="path101" /></g><g
           id="g103"
           transform="translate(2551.8538,997.6342)"><path
             d="m 0,0 h -941.854 c -6.6,0 -12,5.4 -12,12 v 332.098 c 0,6.6 5.4,12 12,12 H 0 c 6.6,0 12,-5.4 12,-12 V 12 C 12,5.4 6.6,0 0,0"
             style="fill:#ffffff;fill-opacity:1;fill-rule:nonzero;stroke:none"
             id="path105" /></g><g
           id="g107"
           transform="translate(2551.8538,997.6342)"><path
             d="m 0,0 h -941.854 c -6.6,0 -12,5.4 -12,12 v 332.098 c 0,6.6 5.4,12 12,12 H 0 c 6.6,0 12,-5.4 12,-12 V 12 C 12,5.4 6.6,0 0,0 Z"
             style="fill:none;stroke:#333132;stroke-width:50;stroke-linecap:butt;stroke-linejoin:miter;stroke-miterlimit:10;stroke-dasharray:none;stroke-opacity:1"
             id="path109" /></g><g
           id="g111"
           transform="translate(1843.2439,1353.7317)"><path
             d="m 0,0 c 0,-28.288 -22.932,-51.219 -51.219,-51.219 -28.288,0 -51.22,22.931 -51.22,51.219 0,28.288 22.932,51.219 51.22,51.219 C -22.932,51.219 0,28.288 0,0"
             style="fill:#333132;fill-opacity:1;fill-rule:nonzero;stroke:none"
             id="path113" /></g><g
           id="g115"
           transform="translate(1402.561,1244.4391)"><path
             d="m 0,0 h -941.854 c -6.6,0 -12,5.4 -12,12 v 332.098 c 0,6.6 5.4,12 12,12 H 0 c 6.6,0 12,-5.4 12,-12 V 12 C 12,5.4 6.6,0 0,0"
             style="fill:#ffffff;fill-opacity:1;fill-rule:nonzero;stroke:none"
             id="path117" /></g><g
           id="g119"
           transform="translate(1402.561,1244.4391)"><path
             d="m 0,0 h -941.854 c -6.6,0 -12,5.4 -12,12 v 332.098 c 0,6.6 5.4,12 12,12 H 0 c 6.6,0 12,-5.4 12,-12 V 12 C 12,5.4 6.6,0 0,0 Z"
             style="fill:none;stroke:#333132;stroke-width:50;stroke-linecap:butt;stroke-linejoin:miter;stroke-miterlimit:10;stroke-dasharray:none;stroke-opacity:1"
             id="path121" /></g><g
           id="g123"
           transform="translate(693.9512,1600.5366)"><path
             d="m 0,0 c 0,-28.288 -22.932,-51.22 -51.22,-51.22 -28.287,0 -51.219,22.932 -51.219,51.22 0,28.288 22.932,51.219 51.219,51.219 C -22.932,51.219 0,28.288 0,0"
             style="fill:#333132;fill-opacity:1;fill-rule:nonzero;stroke:none"
             id="path125" /></g><g
           id="g127"
           transform="translate(1030.5122,772.3171)"><path
             d="m 0,0 h 941.854 c 6.6,0 12,-5.4 12,-12 v -332.098 c 0,-6.6 -5.4,-12 -12,-12 H 0 c -6.6,0 -12,5.4 -12,12 V -12 c 0,6.6 5.4,12 12,12"
             style="fill:#ffffff;fill-opacity:1;fill-rule:nonzero;stroke:none"
             id="path129" /></g><g
           id="g131"
           transform="translate(1030.5122,772.3171)"><path
             d="m 0,0 h 941.854 c 6.6,0 12,-5.4 12,-12 v -332.098 c 0,-6.6 -5.4,-12 -12,-12 H 0 c -6.6,0 -12,5.4 -12,12 V -12 c 0,6.6 5.4,12 12,12 z"
             style="fill:none;stroke:#333132;stroke-width:50;stroke-linecap:butt;stroke-linejoin:miter;stroke-miterlimit:10;stroke-dasharray:none;stroke-opacity:1"
             id="path133" /></g><g
           id="g135"
           transform="translate(1450.2195,416.2195)"><path
             d="m 0,0 c 0,28.288 22.932,51.22 51.219,51.22 28.288,0 51.22,-22.932 51.22,-51.22 0,-28.288 -22.932,-51.22 -51.22,-51.22 C 22.932,-51.22 0,-28.288 0,0"
             style="fill:#333132;fill-opacity:1;fill-rule:nonzero;stroke:none"
             id="path137" /></g></g></g></g></svg>
